<svg xmlns="http://www.w3.org/2000/svg" width="26.477" height="14.646" viewBox="0 0 26.477 14.646">
  <path id="Caminho_1273" data-name="Caminho 1273" d="M-7781.859-8706.492a6.845,6.845,0,0,1-3.868,1.139,7.234,7.234,0,0,1-5.183-2.1,7.32,7.32,0,0,1-2.089-5.211,7.347,7.347,0,0,1,2.089-5.22,7.218,7.218,0,0,1,5.183-2.113,7.092,7.092,0,0,1,2.729.525,7.057,7.057,0,0,1,2.166,1.425.287.287,0,0,1,.02.447l-1.036,1.116a.272.272,0,0,1-.207.11.382.382,0,0,1-.22-.089,5.031,5.031,0,0,0-3.433-1.3,4.938,4.938,0,0,0-5,5.1,4.928,4.928,0,0,0,5,5.079,5.035,5.035,0,0,0,2.562-.674c-.025-.057-.051-.118-.08-.193a5.461,5.461,0,0,1-.371-2.016,5.564,5.564,0,0,1,.354-1.989,4.754,4.754,0,0,1,1-1.6,4.557,4.557,0,0,1,1.553-1.065,5.187,5.187,0,0,1,2.011-.388,4.877,4.877,0,0,1,1.942.381,4.3,4.3,0,0,1,.607.32v-4.85c0-.213.1-.341.277-.341h1.581c.173,0,.277.128.277.341v5.017a4.653,4.653,0,0,1,1.316-.641,5.359,5.359,0,0,1,1.568-.228,4.689,4.689,0,0,1,2.451.641v-4.789c0-.213.1-.341.276-.341h1.581c.174,0,.277.128.277.341v8.867h0a1.522,1.522,0,0,1-.2.865.8.8,0,0,1-.709.286h-6.521a3.03,3.03,0,0,0,3.32,2.568,4.242,4.242,0,0,0,2.49-.751.257.257,0,0,1,.14-.047.212.212,0,0,1,.176.106l.553.751c.111.148.09.267-.079.435a4.081,4.081,0,0,1-1.536.924,5.889,5.889,0,0,1-1.922.3,5.3,5.3,0,0,1-3.515-1.216,4.745,4.745,0,0,1-.5-.5,4.789,4.789,0,0,1-1.18,1,4.884,4.884,0,0,1-1.225.524,5.247,5.247,0,0,1-1.395.185A5.012,5.012,0,0,1-7781.859-8706.492Zm3.239-.838a2.845,2.845,0,0,0,2.863-2.311h-5.742A2.863,2.863,0,0,0-7778.62-8707.33Zm-2.92-3.854h5.553a2.545,2.545,0,0,0-2.687-2.528A2.75,2.75,0,0,0-7781.541-8711.184Zm7.568,0h5.553a2.545,2.545,0,0,0-2.687-2.528A2.75,2.75,0,0,0-7773.973-8711.184Z" transform="translate(7793 8720)" fill="#2c0777"/>
</svg>
